<?xml version="1.0" encoding="UTF-8" standalone="no"?><!DOCTYPE svg PUBLIC "-//W3C//DTD SVG 1.1//EN" "http://www.w3.org/Graphics/SVG/1.1/DTD/svg11.dtd">
<svg width="100%" height="100%" viewBox="0 0 817 817" version="1.1" xmlns="http://www.w3.org/2000/svg" xmlns:xlink="http://www.w3.org/1999/xlink" xml:space="preserve" xmlns:serif="http://www.serif.com/" style="fill-rule:evenodd;clip-rule:evenodd;stroke-linecap:round;stroke-miterlimit:1;"><rect id="Logo_No_Text" x="0.21" y="0.169" width="816.72" height="816.72" style="fill:none;"/><g id="Layer1"><ellipse cx="409.953" cy="409.168" rx="383.694" ry="383.6" style="fill:#034aab;"/></g><g><g><path d="M420.03,114.672c-131.292,-0 -230.361,100.512 -230.361,234.208l-0,0.962c-0,129.367 99.069,228.437 230.361,228.437c108.688,0 201.986,-71.657 224.109,-168.322l1.923,-0c0.481,10.099 0.481,20.199 0.481,30.779c-1.442,204.391 -75.023,317.978 -228.918,317.978c-95.703,0 -170.727,-59.634 -185.635,-141.39l-1.443,-5.29l-24.046,-0l0.962,5.771c16.351,91.856 95.222,163.032 209.681,163.032c154.376,-0 252.483,-98.679 252.483,-342.025l0,-0.962c0,-208.238 -100.512,-323.178 -249.597,-323.178Zm0.962,441.485c-116.864,-0 -207.277,-89.932 -207.277,-206.315l-0,-0.962c-0,-119.749 89.932,-212.086 206.315,-212.086c124.558,0 212.086,100.993 212.086,222.185l-0,0.962c-0,104.841 -98.108,196.216 -211.124,196.216Z" style="fill:#fff;fill-opacity:0.1;fill-rule:nonzero;"/><g><path d="M287.818,476.407l12.854,6.172l47.738,-99.415l62.548,28.371l2.747,-11.438l-59.501,-28.999l128.226,-267.029l-17.837,-8.565l-319.323,174.943l-5.92,12.328l196.207,94.217l-47.739,99.415Zm-127.197,-198.266l0.377,-0.787l299.972,-164.223l1.049,0.504l-120.668,251.291l-180.73,-86.785Z" style="fill:#fff;fill-opacity:0.1;fill-rule:nonzero;"/><path d="M272.91,340.059l137.626,65.021" style="fill:none;stroke:#ffa10f;stroke-width:13.99px;"/><ellipse cx="408.584" cy="407.771" rx="9.216" ry="7.873" style="fill:#ffa10f;"/><path d="M310.736,737.757l13.161,2.997l87.128,-329.595l-12.043,-6.079l-122.397,42.775l-3.363,14.773l121.737,-42.065l0.537,0.123l-84.76,317.071Z" style="fill:#fff;fill-opacity:0.1;fill-rule:nonzero;"/><path d="M174.002,490.398l234.756,-81.751" style="fill:none;stroke:#ffa10f;stroke-width:14.84px;"/></g></g><g><path d="M725.187,416.041c-48.635,-0 2.663,22.038 2.663,22.038" style="fill:none;"/><path d="M759.539,398.83c4.415,-0 8,3.584 8,8c-0,4.415 -3.585,8 -8,8l-31.448,-0c-4.416,-0 -8,-3.585 -8,-8c-0,-4.416 3.584,-8 8,-8l31.448,-0Z" style="fill:#fff;"/><path d="M89.129,398.337c4.413,-0.14 8.11,3.33 8.249,7.743c0.14,4.413 -3.33,8.109 -7.743,8.249l-31.433,0.994c-4.413,0.139 -8.109,-3.331 -8.249,-7.744c-0.139,-4.413 3.331,-8.109 7.744,-8.248l31.432,-0.994Z" style="fill:#fff;"/><path d="M403.019,53.528c0,-4.416 3.585,-8 8,-8c4.416,-0 8,3.584 8,8l0,31.538c0,4.415 -3.584,8 -8,8c-4.415,-0 -8,-3.585 -8,-8l0,-31.538Z" style="fill:#fff;"/><path d="M403.019,733.916c0,-4.415 3.585,-8 8,-8c4.416,0 8,3.585 8,8l0,31.539c0,4.415 -3.584,8 -8,8c-4.415,-0 -8,-3.585 -8,-8l0,-31.539Z" style="fill:#fff;"/><ellipse cx="408.227" cy="409.728" rx="379.154" ry="384.394" style="fill:none;stroke:#fff;stroke-width:15.57px;stroke-linecap:square;"/></g></g></svg>